<svg width="350" height="250" viewBox="0 0 350 250" fill="none" xmlns="http://www.w3.org/2000/svg">
<rect width="350" height="250" fill="white"/>
<path d="M153.638 113.504C153.638 114.952 153.353 116.32 152.783 117.605C152.214 118.875 151.489 120.047 150.61 121.121C149.748 122.195 148.796 123.172 147.754 124.051C146.729 124.913 145.752 125.662 144.824 126.297C146.126 126.411 147.42 126.728 148.706 127.249C150.008 127.754 151.172 128.462 152.197 129.373C153.239 130.268 154.077 131.359 154.712 132.645C155.363 133.914 155.688 135.363 155.688 136.99C155.688 138.325 155.493 139.529 155.103 140.604C154.728 141.661 154.224 142.614 153.589 143.46C152.954 144.29 152.23 145.006 151.416 145.608C150.618 146.211 149.805 146.707 148.975 147.098C148.145 147.488 147.323 147.773 146.509 147.952C145.711 148.147 145.003 148.245 144.385 148.245C142.822 148.245 141.52 148.058 140.479 147.684C139.453 147.309 138.631 146.854 138.013 146.316C137.41 145.763 136.987 145.185 136.743 144.583C136.499 143.981 136.377 143.452 136.377 142.996C136.377 142.296 136.523 141.629 136.816 140.994C137.126 140.343 137.533 139.757 138.037 139.236C138.542 138.715 139.128 138.26 139.795 137.869C140.462 137.462 141.154 137.153 141.87 136.941L142.383 137.747C141.357 138.3 140.601 139.017 140.112 139.896C139.624 140.758 139.38 141.629 139.38 142.508C139.38 142.996 139.478 143.509 139.673 144.046C139.884 144.567 140.194 145.047 140.601 145.486C141.024 145.926 141.545 146.292 142.163 146.585C142.798 146.862 143.538 147 144.385 147C145.622 147 146.777 146.772 147.852 146.316C148.926 145.844 149.854 145.201 150.635 144.388C151.432 143.558 152.051 142.589 152.49 141.482C152.946 140.376 153.174 139.179 153.174 137.894C153.174 136.575 152.897 135.411 152.344 134.402C151.807 133.393 151.082 132.547 150.171 131.863C149.276 131.163 148.234 130.634 147.046 130.276C145.874 129.918 144.653 129.739 143.384 129.739C142.863 129.739 142.35 129.772 141.846 129.837C141.341 129.886 140.861 129.959 140.405 130.057C139.966 130.138 139.567 130.219 139.209 130.301C138.851 130.382 138.574 130.447 138.379 130.496L138.135 130.252L140.381 126.761C140.56 126.712 140.763 126.655 140.991 126.59C141.187 126.541 141.423 126.492 141.699 126.443C141.976 126.378 142.285 126.329 142.627 126.297C143.408 125.825 144.222 125.231 145.068 124.515C145.931 123.782 146.712 122.944 147.412 122C148.128 121.04 148.714 119.965 149.17 118.777C149.642 117.589 149.878 116.295 149.878 114.896C149.878 112.535 149.316 110.753 148.193 109.549C147.07 108.344 145.467 107.742 143.384 107.742C142.179 107.742 140.967 108.003 139.746 108.523C138.525 109.028 137.345 109.809 136.206 110.867C135.083 111.925 134.025 113.26 133.032 114.871C132.056 116.482 131.201 118.379 130.469 120.56C129.753 122.741 129.183 125.223 128.76 128.006C128.337 130.789 128.125 133.873 128.125 137.259C128.125 138.659 128.182 139.952 128.296 141.141C128.426 142.329 128.613 143.362 128.857 144.241C129.118 145.104 129.435 145.779 129.81 146.268C130.184 146.756 130.623 147 131.128 147C131.632 147 132.031 146.634 132.324 145.901C132.633 145.153 132.861 144.184 133.008 142.996C133.171 141.792 133.268 140.449 133.301 138.968C133.35 137.487 133.374 135.997 133.374 134.5C133.374 132.221 133.341 130.081 133.276 128.079C133.211 126.061 133.138 124.262 133.057 122.684C132.992 121.105 132.926 119.786 132.861 118.729C132.796 117.671 132.756 116.963 132.739 116.604L135.571 115.75C135.653 115.88 135.767 116.271 135.913 116.922C136.06 117.573 136.206 118.436 136.353 119.51C136.499 120.568 136.621 121.805 136.719 123.221C136.833 124.62 136.89 126.134 136.89 127.762C136.89 130.512 136.808 132.929 136.646 135.013C136.499 137.08 136.287 138.878 136.011 140.408C135.734 141.922 135.409 143.183 135.034 144.192C134.676 145.201 134.277 146.007 133.838 146.609C133.415 147.195 132.967 147.61 132.495 147.854C132.039 148.115 131.584 148.245 131.128 148.245C130.135 148.245 129.24 147.903 128.442 147.22C127.661 146.552 126.994 145.665 126.44 144.559C125.887 143.436 125.464 142.158 125.171 140.726C124.878 139.277 124.731 137.788 124.731 136.258C124.731 134.061 124.935 131.79 125.342 129.446C125.749 127.103 126.351 124.816 127.148 122.586C127.946 120.34 128.931 118.216 130.103 116.214C131.274 114.196 132.625 112.438 134.155 110.94C135.685 109.427 137.386 108.23 139.258 107.352C141.146 106.456 143.188 106.009 145.386 106.009C146.639 106.009 147.77 106.18 148.779 106.521C149.805 106.847 150.675 107.335 151.392 107.986C152.108 108.621 152.661 109.402 153.052 110.33C153.442 111.258 153.638 112.316 153.638 113.504Z" fill="#BCBCBC"/>
<path d="M164.478 143.899C164.771 143.899 165.104 143.712 165.479 143.338C165.869 142.947 166.284 142.418 166.724 141.751C167.163 141.084 167.627 140.302 168.115 139.407C168.604 138.512 169.108 137.544 169.629 136.502L169.873 135.989L170.874 136.746L170.63 137.259C169.767 138.984 168.994 140.465 168.311 141.702C167.643 142.923 167.017 143.932 166.431 144.729C165.845 145.511 165.283 146.089 164.746 146.463C164.225 146.821 163.688 147 163.135 147C162.402 147 161.768 146.764 161.23 146.292C160.71 145.804 160.27 144.998 159.912 143.875C159.57 142.736 159.318 141.238 159.155 139.383C158.976 137.527 158.887 135.232 158.887 132.498C158.887 128.624 159.049 125.304 159.375 122.537C159.701 119.754 160.14 117.475 160.693 115.701C161.263 113.911 161.914 112.601 162.646 111.771C163.395 110.924 164.176 110.501 164.99 110.501C165.479 110.501 165.885 110.704 166.211 111.111C166.553 111.502 166.724 112.218 166.724 113.26C166.724 114.074 166.659 115.001 166.528 116.043C166.398 117.085 166.227 118.2 166.016 119.388C165.804 120.576 165.552 121.813 165.259 123.099C164.966 124.368 164.657 125.638 164.331 126.907C164.006 128.16 163.672 129.397 163.33 130.618C162.988 131.823 162.655 132.954 162.329 134.012C162.427 136.014 162.533 137.658 162.646 138.943C162.777 140.213 162.923 141.214 163.086 141.946C163.265 142.679 163.468 143.191 163.696 143.484C163.924 143.761 164.185 143.899 164.478 143.899ZM165.137 113.846C165.137 113.504 165.096 113.235 165.015 113.04C164.933 112.845 164.803 112.747 164.624 112.747C164.445 112.747 164.266 112.999 164.087 113.504C163.908 114.008 163.729 114.692 163.55 115.555C163.387 116.417 163.232 117.418 163.086 118.558C162.956 119.697 162.834 120.91 162.72 122.195C162.606 123.465 162.516 124.767 162.451 126.102C162.386 127.436 162.345 128.722 162.329 129.959C162.72 128.527 163.078 127.062 163.403 125.564C163.745 124.051 164.046 122.586 164.307 121.17C164.567 119.754 164.771 118.419 164.917 117.166C165.063 115.896 165.137 114.79 165.137 113.846Z" fill="#BCBCBC"/>
<path d="M190.332 136.746L190.063 137.259C189.51 138.366 188.77 139.253 187.842 139.92C186.93 140.571 185.938 140.994 184.863 141.189C184.57 142.02 184.188 142.793 183.716 143.509C183.26 144.209 182.731 144.819 182.129 145.34C181.543 145.861 180.876 146.268 180.127 146.561C179.395 146.854 178.597 147 177.734 147C176.481 147 175.35 146.74 174.341 146.219C173.348 145.682 172.502 144.965 171.802 144.07C171.102 143.159 170.565 142.101 170.19 140.896C169.816 139.676 169.629 138.374 169.629 136.99C169.629 135.786 169.767 134.695 170.044 133.719C170.321 132.726 170.671 131.847 171.094 131.082C171.517 130.301 171.989 129.625 172.51 129.056C173.031 128.47 173.543 127.99 174.048 127.615C174.552 127.241 175.008 126.964 175.415 126.785C175.838 126.59 176.156 126.492 176.367 126.492L176.685 127.347C176.017 127.835 175.423 128.519 174.902 129.397C174.447 130.146 174.032 131.139 173.657 132.376C173.299 133.613 173.12 135.151 173.12 136.99C173.12 138.113 173.226 139.204 173.438 140.262C173.649 141.32 173.958 142.256 174.365 143.069C174.772 143.883 175.269 144.534 175.854 145.022C176.457 145.511 177.132 145.755 177.881 145.755C178.906 145.755 179.753 145.348 180.42 144.534C181.104 143.704 181.608 142.573 181.934 141.141C181.087 140.962 180.282 140.628 179.517 140.14C178.752 139.651 178.076 139.049 177.49 138.333C176.904 137.601 176.432 136.762 176.074 135.818C175.732 134.874 175.562 133.849 175.562 132.742C175.562 131.831 175.675 131.033 175.903 130.35C176.147 129.65 176.465 129.072 176.855 128.616C177.246 128.144 177.694 127.794 178.198 127.566C178.719 127.322 179.264 127.2 179.834 127.2C180.501 127.2 181.185 127.396 181.885 127.786C182.585 128.16 183.219 128.73 183.789 129.495C184.359 130.244 184.823 131.188 185.181 132.327C185.539 133.466 185.718 134.793 185.718 136.307C185.718 136.876 185.685 137.438 185.62 137.991C185.555 138.545 185.457 139.082 185.327 139.603C186.108 139.375 186.816 139.008 187.451 138.504C188.102 137.999 188.639 137.332 189.062 136.502L189.331 135.989L190.332 136.746ZM177.173 132.547C177.173 133.507 177.303 134.394 177.563 135.208C177.84 136.006 178.206 136.714 178.662 137.332C179.118 137.934 179.647 138.439 180.249 138.846C180.851 139.253 181.494 139.537 182.178 139.7C182.259 139.244 182.308 138.772 182.324 138.284C182.357 137.78 182.373 137.267 182.373 136.746C182.373 135.59 182.284 134.549 182.104 133.621C181.925 132.677 181.689 131.88 181.396 131.229C181.104 130.561 180.762 130.049 180.371 129.69C179.98 129.332 179.582 129.153 179.175 129.153C178.621 129.153 178.149 129.454 177.759 130.057C177.368 130.643 177.173 131.473 177.173 132.547Z" fill="#BCBCBC"/>
<path d="M196.167 156.253C196.167 155.537 196.297 154.812 196.558 154.08C196.834 153.348 197.209 152.599 197.681 151.834C198.153 151.069 198.698 150.271 199.316 149.441C199.951 148.628 200.635 147.781 201.367 146.902V142.288C200.977 143.053 200.537 143.729 200.049 144.314C199.561 144.9 199.04 145.397 198.486 145.804C197.949 146.194 197.388 146.495 196.802 146.707C196.232 146.902 195.671 147 195.117 147C194.352 147 193.612 146.813 192.896 146.438C192.196 146.064 191.569 145.503 191.016 144.754C190.462 143.989 190.023 143.029 189.697 141.873C189.372 140.717 189.209 139.358 189.209 137.796C189.209 136.478 189.364 135.175 189.673 133.89C189.982 132.604 190.446 131.456 191.064 130.447C191.683 129.422 192.448 128.592 193.359 127.957C194.271 127.322 195.337 127.005 196.558 127.005C197.518 127.005 198.413 127.2 199.243 127.591C200.09 127.981 200.798 128.551 201.367 129.3V129.007C201.367 128.698 201.457 128.421 201.636 128.177C201.831 127.916 202.067 127.705 202.344 127.542C202.637 127.363 202.938 127.233 203.247 127.151C203.573 127.054 203.857 127.005 204.102 127.005C204.378 127.005 204.574 127.046 204.688 127.127C204.801 127.192 204.858 127.314 204.858 127.493C204.858 127.754 204.826 128.34 204.761 129.251C204.696 130.162 204.663 131.497 204.663 133.255V143.851C205.07 143.346 205.501 142.785 205.957 142.166C206.413 141.548 206.868 140.905 207.324 140.237C207.78 139.554 208.219 138.854 208.643 138.138C209.082 137.422 209.489 136.705 209.863 135.989L210.107 135.501L211.108 136.258L210.864 136.746C210.474 137.527 210.018 138.341 209.497 139.188C208.993 140.018 208.455 140.84 207.886 141.653C207.332 142.451 206.771 143.224 206.201 143.973C205.648 144.705 205.135 145.364 204.663 145.95V151.248C204.663 152.745 204.525 154.015 204.248 155.057C203.988 156.115 203.621 156.969 203.149 157.62C202.694 158.287 202.14 158.768 201.489 159.061C200.854 159.354 200.163 159.5 199.414 159.5C198.486 159.5 197.713 159.207 197.095 158.621C196.476 158.051 196.167 157.262 196.167 156.253ZM196.606 144.51C197.111 144.51 197.607 144.363 198.096 144.07C198.6 143.777 199.064 143.403 199.487 142.947C199.91 142.492 200.285 141.995 200.61 141.458C200.952 140.905 201.204 140.368 201.367 139.847V132.962C201.367 132.229 201.253 131.57 201.025 130.984C200.798 130.382 200.496 129.878 200.122 129.471C199.748 129.048 199.316 128.722 198.828 128.494C198.356 128.266 197.868 128.152 197.363 128.152C196.582 128.152 195.898 128.388 195.312 128.86C194.727 129.316 194.238 129.926 193.848 130.691C193.457 131.44 193.164 132.303 192.969 133.279C192.79 134.256 192.7 135.249 192.7 136.258C192.7 137.511 192.773 138.642 192.92 139.651C193.083 140.66 193.327 141.531 193.652 142.264C193.978 142.98 194.385 143.533 194.873 143.924C195.361 144.314 195.939 144.51 196.606 144.51ZM199.146 158.011C199.406 158.011 199.666 157.954 199.927 157.84C200.203 157.742 200.448 157.506 200.659 157.132C200.871 156.757 201.042 156.204 201.172 155.472C201.302 154.739 201.367 153.746 201.367 152.493V148.855C200.244 150.206 199.325 151.484 198.608 152.688C197.909 153.909 197.559 155.049 197.559 156.106C197.559 156.611 197.697 157.05 197.974 157.425C198.25 157.815 198.641 158.011 199.146 158.011Z" fill="#BCBCBC"/>
</svg>
